<?xml version="1.0" standalone="no"?>
<!DOCTYPE svg PUBLIC "-//W3C//DTD SVG 20010904//EN"
 "http://www.w3.org/TR/2001/REC-SVG-20010904/DTD/svg10.dtd">
<svg version="1.0" xmlns="http://www.w3.org/2000/svg"
 width="300.000000pt" height="300.000000pt" viewBox="0 0 300.000000 300.000000"
 preserveAspectRatio="xMidYMid meet">
<metadata>
Created by potrace 1.11, written by Peter Selinger 2001-2013
</metadata>
<g transform="translate(0.000000,300.000000) scale(0.100000,-0.100000)"
fill="#000000" stroke="none">
<path d="M1318 2960 c-15 -5 -44 -10 -65 -13 -94 -12 -236 -56 -353 -109 -80
-36 -208 -110 -237 -138 -12 -11 -27 -20 -32 -20 -6 0 -14 -6 -18 -13 -4 -6
-24 -24 -43 -38 -46 -35 -170 -158 -170 -169 0 -5 -6 -13 -13 -17 -22 -14
-117 -147 -117 -163 0 -6 -4 -10 -8 -10 -6 0 -94 -161 -98 -180 -1 -8 -23 -63
-34 -85 -13 -28 -57 -192 -64 -240 -4 -22 -10 -64 -15 -92 -13 -81 -5 -338 13
-433 25 -133 90 -335 117 -364 5 -6 9 -18 9 -28 0 -10 3 -18 8 -18 4 0 15 -17
25 -37 25 -53 98 -167 116 -183 4 -3 19 -22 35 -43 36 -48 165 -178 214 -214
20 -16 45 -35 55 -44 10 -9 33 -25 52 -35 19 -10 35 -22 35 -27 0 -4 4 -5 10
-2 5 3 10 2 10 -2 0 -12 185 -104 210 -104 3 0 13 -8 24 -17 10 -9 19 -15 20
-13 0 2 35 -7 76 -19 73 -22 106 -30 145 -35 11 -2 20 -4 20 -5 0 -2 17 -4
115 -15 109 -12 307 -7 390 10 126 26 275 70 298 88 6 5 12 7 12 4 0 -9 213
102 221 114 3 6 9 9 12 7 3 -1 17 7 31 20 15 12 31 22 36 22 6 0 10 5 10 10 0
6 5 10 12 10 15 0 25 10 158 143 118 118 110 109 170 197 59 85 62 91 109 185
42 83 104 245 94 245 -3 0 -1 6 5 13 5 6 13 26 15 42 3 17 8 39 10 50 3 11 8
43 12 70 3 28 9 66 12 85 11 75 3 338 -11 381 -4 12 -8 30 -20 99 -3 22 -25
100 -38 135 -28 81 -102 245 -109 245 -5 0 -9 9 -9 19 0 11 -3 21 -7 23 -5 2
-29 35 -54 73 -25 39 -57 83 -70 99 -48 58 -198 206 -208 206 -6 0 -11 4 -11
9 0 8 -115 92 -125 91 -3 0 -15 8 -26 19 -25 23 -212 117 -254 127 -17 4 -34
10 -40 14 -5 4 -26 11 -45 15 -19 4 -39 10 -45 13 -5 4 -14 7 -20 8 -197 37
-239 42 -379 42 -83 -1 -163 -4 -178 -8z m-143 -803 c59 -16 135 -50 135 -59
0 -5 6 -8 13 -8 25 0 136 -118 158 -168 16 -36 39 -43 39 -12 0 11 4 20 8 20
5 0 15 12 23 28 22 43 115 127 173 156 30 15 77 33 106 41 55 14 211 17 245 4
41 -15 60 -22 72 -24 6 -2 26 -14 44 -26 124 -88 208 -250 209 -403 0 -66 -5
-120 -13 -133 -5 -7 -6 -17 -2 -22 3 -5 1 -12 -5 -16 -5 -3 -10 -13 -10 -20 0
-24 -46 -116 -94 -190 -25 -38 -46 -66 -46 -62 0 4 -17 -12 -37 -35 -56 -62
-139 -136 -243 -218 -24 -19 -56 -46 -70 -59 -14 -13 -41 -35 -60 -50 -45 -34
-240 -224 -240 -234 0 -4 -11 -20 -25 -35 -14 -16 -32 -37 -40 -48 -14 -19
-14 -19 -29 1 -8 11 -16 26 -16 33 0 7 -5 10 -10 7 -5 -3 -10 1 -10 9 0 17
-176 198 -254 261 -27 22 -57 48 -65 58 -9 9 -19 17 -23 17 -5 0 -21 11 -36
24 -48 43 -76 67 -116 99 -42 35 -161 152 -190 187 -32 39 -101 153 -115 190
-79 208 -45 427 89 569 92 98 176 131 320 127 52 -2 104 -5 115 -9z"/>
</g>
</svg>
